<svg id="Layer_1" data-name="Layer 1" xmlns="http://www.w3.org/2000/svg" xmlns:xlink="http://www.w3.org/1999/xlink" viewBox="0 0 116.44 127.33"><defs><style>.cls-1{fill:url(#linear-gradient);}.cls-2{fill:url(#linear-gradient-2);}</style><linearGradient id="linear-gradient" x1="26.74" y1="11.68" x2="103.54" y2="88.47" gradientUnits="userSpaceOnUse"><stop offset="0" stop-color="#fdbb39"/><stop offset="0.11" stop-color="#ffac5c"/><stop offset="0.22" stop-color="#ffa180"/><stop offset="0.33" stop-color="#ff9da5"/><stop offset="0.44" stop-color="#ff9dc7"/><stop offset="0.56" stop-color="#ffa7e5"/><stop offset="0.67" stop-color="#efb4fb"/><stop offset="0.78" stop-color="#d1c1ff"/><stop offset="0.89" stop-color="#b2c7ff"/><stop offset="1" stop-color="#9dceff"/></linearGradient><linearGradient id="linear-gradient-2" x1="8.84" y1="75.89" x2="52.12" y2="119.18" xlink:href="#linear-gradient"/></defs><path class="cls-1" d="M62.36,0C30.65,0,8.29,22.36,8.29,52.86A58.49,58.49,0,0,0,9.75,65.93a39.82,39.82,0,0,1,20.73-5.52c22,0,37.9,15.61,37.9,37.12a41.17,41.17,0,0,1-.77,8c28.9-2.33,48.83-23.85,48.83-52.63C116.44,22.36,94.08,0,62.36,0Z"/><path class="cls-2" d="M0,97.53C0,80.35,12.6,67.74,30.48,67.74S61,80.35,61,97.53s-12.61,29.8-30.48,29.8S0,114.72,0,97.53Z"/></svg>