<svg id="Layer_1" data-name="Layer 1" xmlns="http://www.w3.org/2000/svg" xmlns:xlink="http://www.w3.org/1999/xlink" viewBox="0 0 664.48 311.67"><defs><style>.cls-1{fill:#f9f9f9;}.cls-2{fill:#fff;}.cls-3{fill:url(#linear-gradient);}.cls-4{fill:url(#linear-gradient-2);}</style><linearGradient id="linear-gradient" x1="81.37" y1="176.59" x2="117.26" y2="212.49" gradientUnits="userSpaceOnUse"><stop offset="0" stop-color="#fdbb39"/><stop offset="0.11" stop-color="#ffac5c"/><stop offset="0.22" stop-color="#ffa180"/><stop offset="0.33" stop-color="#ff9da5"/><stop offset="0.44" stop-color="#ff9dc7"/><stop offset="0.56" stop-color="#ffa7e5"/><stop offset="0.67" stop-color="#efb4fb"/><stop offset="0.78" stop-color="#d1c1ff"/><stop offset="0.89" stop-color="#b2c7ff"/><stop offset="1" stop-color="#9dceff"/></linearGradient><linearGradient id="linear-gradient-2" x1="96.22" y1="123.35" x2="159.9" y2="187.03" xlink:href="#linear-gradient"/></defs><rect class="cls-1" x="-0.2" width="664.68" height="311.67"/><path d="M201.11,157.57c0-18.68,10.86-27.22,25.15-27.22,9.16,0,16.72,3.9,21,11.35,4.27-7.45,11.72-11.35,21-11.35,14.28,0,25.14,8.54,25.14,27.22v34.67H280.22V157.57c0-10.5-5.49-15-13.19-15s-13.06,4.76-13.06,15v34.67H240.79V157.57c0-10.25-5.74-15-13.31-15s-13.19,4.51-13.19,15v34.67H201.11Z"/><path d="M302.92,162.7c0-19.17,13.43-32.35,32.6-32.35,18.92,0,32.11,12.82,32.11,32.23v29.66H355.54V179.79c-3.78,9.28-12.33,14-22.34,14C318.06,193.83,302.92,183,302.92,162.7Zm51.52-.61c0-11.35-7.57-19.53-19-19.53s-19.17,8.18-19.17,19.53,7.69,19.53,19.17,19.53S354.44,173.44,354.44,162.09Z"/><path d="M377.15,162.09c0-18.31,13.43-31.74,32.47-31.74,16.24,0,28.2,9.76,31.26,23.8H427.57c-2.81-7-9.28-11.59-17.95-11.59-11.47,0-19.17,8.18-19.17,19.53s7.7,19.53,19.17,19.53c8.67,0,15.14-4.64,17.95-11.6h13.31c-3.06,14-15,23.81-31.26,23.81C390.58,193.83,377.15,180.4,377.15,162.09Z"/><path d="M450.39,157c0-17.94,10.63-26.61,26.25-26.61s26.13,8.67,26.13,26.86v.48H489.71V157c0-10.38-5.25-14.4-13.07-14.4s-13.06,4-13.06,14.4v35.28H450.39Z"/><path class="cls-2" d="M574.13,157.82c-.35-3.88-.67-7.77-1.06-11.65a20.07,20.07,0,0,0-.67-3.15c-2-7.72-7-11.79-14.92-12.47a49.93,49.93,0,0,0-20.5,2.84c-8,2.72-15.29,6.7-21.12,13-4.05,4.36-6.71,9.38-6.79,15.49-.05,3.22-.12,6.46.14,9.66a57.61,57.61,0,0,0,1.48,9.53,13.9,13.9,0,0,0,8.72,9.7,41.72,41.72,0,0,0,13.09,2.72c5.33.36,10.67.74,16-.33,11.19-2.24,19.17-8.47,23.41-19.2C573.92,168.75,574.14,163.32,574.13,157.82Z"/><path d="M574.13,157.82c0,5.5-.21,10.93-2.26,16.11-4.24,10.73-12.22,17-23.41,19.2a59,59,0,0,1-15.92.7,42.48,42.48,0,0,1-13.13-3.09,13.9,13.9,0,0,1-8.72-9.7,57.61,57.61,0,0,1-1.48-9.53c-.26-3.2-.19-6.44-.14-9.66.08-6.11,2.29-15,6.34-19.32a26.86,26.86,0,0,1,14.91-10,77.5,77.5,0,0,1,14.89-2.15,95.71,95.71,0,0,1,12.27.2c7.95.68,12.88,4.75,14.92,12.47a20.07,20.07,0,0,1,.67,3.15A61.08,61.08,0,0,1,574.13,157.82Zm-13.62,4.82c0-11.12-6.35-18.57-16.59-19.93a18.74,18.74,0,0,0-18.84,8.8,20.55,20.55,0,0,0-2.62,12c.53,7.25,3.59,13.05,10.4,16.12s13.74,2.77,20-1.59C558.37,174.24,560.35,168.55,560.51,162.64Z"/><path class="cls-2" d="M560.51,162.64c-.16,5.91-2.14,11.6-7.62,15.4-6.29,4.36-13.18,4.69-20,1.59s-9.87-8.87-10.4-16.12a20.55,20.55,0,0,1,2.62-12,18.74,18.74,0,0,1,18.84-8.8C554.16,144.07,560.54,151.52,560.51,162.64Z"/><path class="cls-3" d="M74,194.54c0-14.25,10.45-24.7,25.27-24.7s25.28,10.45,25.28,24.7-10.46,24.71-25.28,24.71S74,208.79,74,194.54Z"/><path class="cls-4" d="M125.75,113.66c-26.3,0-44.84,18.54-44.84,43.83a48.33,48.33,0,0,0,1.21,10.84,33.09,33.09,0,0,1,17.19-4.58c18.21,0,31.43,12.95,31.43,30.79a33.73,33.73,0,0,1-.64,6.6c24-1.93,40.5-19.78,40.5-43.65C170.6,132.2,152.05,113.66,125.75,113.66Z"/></svg>